<svg xmlns="http://www.w3.org/2000/svg" width="375" viewBox="0 0 375 375" height="375" version="1.0"><g fill="#002EB6"><g><g><path d="M 213.097656 -75.820312 C 213.097656 -106.882812 194.394531 -133.605469 167.339844 -145.628906 C 175.019531 -157.652344 179.027344 -172.015625 179.027344 -187.046875 C 179.027344 -231.46875 143.289062 -267.207031 99.199219 -267.207031 L 0 -267.207031 L 2.339844 -256.851562 C 7.015625 -236.8125 25.71875 -222.449219 47.09375 -222.449219 L 99.199219 -222.449219 C 118.90625 -222.449219 134.605469 -206.75 134.605469 -187.378906 L 134.605469 -187.046875 C 134.605469 -167.671875 118.90625 -151.972656 99.199219 -151.972656 L 58.117188 -151.972656 L 58.117188 -212.429688 L 47.761719 -210.09375 C 27.722656 -205.082031 13.695312 -186.710938 13.695312 -165.335938 L 13.695312 -58.453125 L 24.046875 -60.789062 C 44.089844 -65.800781 58.117188 -84.171875 58.117188 -105.546875 L 58.117188 -107.21875 L 136.945312 -107.21875 C 145.628906 -107.21875 153.644531 -103.878906 159.324219 -98.199219 C 165 -92.519531 168.339844 -84.503906 168.339844 -75.820312 C 168.339844 -58.453125 154.3125 -44.421875 136.945312 -44.421875 L 0 -44.421875 L 2.671875 -34.070312 C 8.351562 -14.027344 30.730469 0 56.113281 0 L 136.945312 0 C 179.027344 0 213.097656 -33.734375 213.097656 -75.820312 Z M 213.097656 -75.820312" transform="translate(70.591 324.892)"/></g></g></g></svg>